<?xml version="1.0" encoding="utf-8"?>
<svg viewBox="33.539 76.839 431.546 141.055" xmlns="http://www.w3.org/2000/svg">
  <defs>
    <clipPath id="clip-path">
      <path id="Path_4012" data-name="Path 4012" d="M158.84,66.809l270.818,55.4,70.334-52.76-294.556,43.96L350.524,58.98" transform="translate(-158.84 -58.98)" fill="none"/>
    </clipPath>
    <clipPath id="clip-path-2">
      <rect id="Rectangle_921" data-name="Rectangle 921" width="97.823" height="97.823" fill="none"/>
    </clipPath>
  </defs>
  <g id="Layer_2" data-name="Layer 2" transform="matrix(0.568573, 0, 0, 0.615582, 33.539471, 76.838722)" style="">
    <g id="Layer_1" data-name="Layer 1">
      <path id="Path_3926" data-name="Path 3926" d="M29.77,51.21V79.682H20.826V59.013L0,60.639v-7.8L20.826,51.21Z" transform="translate(0 15.95)" fill="#AD3889"/>
      <path id="Path_3927" data-name="Path 3927" d="M34.734,66.5v8.42l-3.58,5.731H25.79l3.541-5.731H25.79V66.5Z" transform="translate(8.033 20.713)" fill="#AD3889"/>
      <path id="Path_3928" data-name="Path 3928" d="M35.71,69.872h8.984c.092,1.311,1.023,2.531,3.5,2.531H64.457c2.4,0,3.541-.866,3.58-2.321,0-1.062-1.023-2.033-3.292-2.033H35.894L37.205,51.21H75.723v7.869H44.864l-.131,2.033H65.716c8.184,0,11.4,4.184,11.4,8.984h0c0,4.839-2.846,10.085-12.643,10.085H48.2C37.14,80.167,35.71,72.639,35.71,69.872Z" transform="translate(11.123 15.95)" fill="#AD3889"/>
      <path id="Path_3929" data-name="Path 3929" d="M69.78,65.555c0-8.288,5.81-14.715,15.043-14.715h16.262c9.18,0,15.056,6.426,15.056,14.715s-5.823,14.728-15.056,14.728H84.823C75.59,80.282,69.78,73.9,69.78,65.555Zm31.3,6.1a5.639,5.639,0,0,0,5.941-6.1,5.652,5.652,0,0,0-5.941-6.1H84.823a5.666,5.666,0,0,0-5.941,6.1,5.639,5.639,0,0,0,5.941,6.1Z" transform="translate(21.734 15.835)" fill="#AD3889"/>
      <path id="Path_3930" data-name="Path 3930" d="M107,65.555c0-8.288,5.81-14.715,15.043-14.715H138.3c9.18,0,15.056,6.426,15.056,14.715S147.538,80.282,138.3,80.282H122.043C112.784,80.282,107,73.9,107,65.555Zm31.3,6.1a5.639,5.639,0,0,0,5.941-6.1,5.666,5.666,0,0,0-5.941-6.1H122.043a5.666,5.666,0,0,0-5.941,6.1,5.639,5.639,0,0,0,5.941,6.1Z" transform="translate(33.327 15.835)" fill="#AD3889"/>
      <path id="Path_3931" data-name="Path 3931" d="M150.781,67.971H143.87V61.413h6.911V53.82H158.1v7.554h6.925v6.557h-6.911v7.554h-7.318Z" transform="translate(44.811 16.763)" fill="#AD3889"/>
      <path id="Path_3932" data-name="Path 3932" d="M26.133,90.715H24.415L24.258,89h-3.3v11.8l1.666.289V102.4H17.268v-1.311l1.666-.289V89H15.615l-.144,1.718H13.74v-3.3H26.133Z" transform="translate(4.28 27.226)" fill="#f05423"/>
      <path id="Path_3933" data-name="Path 3933" d="M26.461,91.864,27.9,97.386l.236,1.311h.066l.289-1.311L30.71,90.33h1.613l2.23,7.056.315,1.5h0l.289-1.5,1.311-5.521-1.311-.223V90.33h4.223v1.311l-.97.131-2.793,9.652H34.133l-2.111-6.754-.472-1.862h0l-.433,1.862-2.111,6.754H27.287l-2.793-9.652-.984-.131V90.33h4.223v1.311Z" transform="translate(7.323 28.135)" fill="#f05423"/>
      <path id="Path_3934" data-name="Path 3934" d="M38.613,101V93.131L37,92.8V91.492h3.685V101l1.561.289V102.6H37v-1.311Zm0-12.341V86.6h2.02v2.059Z" transform="translate(11.524 26.973)" fill="#f05423"/>
      <path id="Path_3935" data-name="Path 3935" d="M45.8,90.953h2.111v1.5H45.8v6.741a1.521,1.521,0,0,0,.328,1.089,1.154,1.154,0,0,0,.852.315h.6l.564-.092.275,1.311a2.781,2.781,0,0,1-.839.3,5.47,5.47,0,0,1-1.115.118,2.623,2.623,0,0,1-1.954-.748,3.2,3.2,0,0,1-.734-2.321V92.448H42v-1.5h1.744V88.33H45.8Z" transform="translate(13.082 27.512)" fill="#f05423"/>
      <path id="Path_3936" data-name="Path 3936" d="M51.654,90.953h2.1v1.5h-2.1v6.741a1.521,1.521,0,0,0,.328,1.089,1.154,1.154,0,0,0,.852.315h.6l.551-.092.289,1.311a2.741,2.741,0,0,1-.852.3,5.245,5.245,0,0,1-1.1.118,2.623,2.623,0,0,1-1.954-.748,3.2,3.2,0,0,1-.734-2.321V92.448H47.89v-1.5h1.744V88.33h2.02Z" transform="translate(14.916 27.512)" fill="#f05423"/>
      <path id="Path_3937" data-name="Path 3937" d="M55.328,100.122a5.77,5.77,0,0,1-1.377-3.934v-.446a5.666,5.666,0,0,1,1.416-3.934A4.315,4.315,0,0,1,58.7,90.233a4.171,4.171,0,0,1,3.384,1.311A5.338,5.338,0,0,1,63.2,95.177v1.311H56.036a4.367,4.367,0,0,0,.813,2.623,2.623,2.623,0,0,0,2.177,1.036,5.128,5.128,0,0,0,1.81-.3,4.039,4.039,0,0,0,1.311-.8l.787,1.311a5.1,5.1,0,0,1-1.574.97,6.348,6.348,0,0,1-2.361.393,4.629,4.629,0,0,1-3.672-1.6Zm1.626-7.567a4.039,4.039,0,0,0-.879,2.151H61.19V94.43a3.082,3.082,0,0,0-.616-1.875,2.256,2.256,0,0,0-1.889-.8,2.19,2.19,0,0,0-1.731.8Z" transform="translate(16.803 28.101)" fill="#f05423"/>
      <path id="Path_3938" data-name="Path 3938" d="M62.54,90.371h3.475l.184,1.613a4.026,4.026,0,0,1,1.167-1.311,2.728,2.728,0,0,1,1.587-.472h.485l.38.079-.262,1.875H68.4a2.321,2.321,0,0,0-1.311.367,2.4,2.4,0,0,0-.839,1.049v6.361l1.666.289v1.311H62.54V100.22l1.666-.289V92.062l-1.666-.275Z" transform="translate(19.479 28.094)" fill="#f05423"/>
      <path id="Path_3939" data-name="Path 3939" d="M74.652,100.751v-11.8L73,88.711V87.4H84.528v3.593H82.8l-.17-2.007H76.672v5.141h5.77v1.587h-5.77v5.023l1.679.289v1.311H73v-1.311Z" transform="translate(22.737 27.222)" fill="#f05423"/>
      <path id="Path_3940" data-name="Path 3940" d="M84.256,91.768a4.433,4.433,0,0,1,3.607-1.587A4.485,4.485,0,0,1,91.5,91.768a6.085,6.085,0,0,1,1.311,4.052v.223a6.138,6.138,0,0,1-1.311,4.066,4.944,4.944,0,0,1-7.252,0,6.046,6.046,0,0,1-1.311-4.052v-.223A6.085,6.085,0,0,1,84.256,91.768Zm1.39,7.187a2.452,2.452,0,0,0,2.216,1.154,2.426,2.426,0,0,0,2.177-1.154,5.246,5.246,0,0,0,.748-2.911V95.82a5.246,5.246,0,0,0-.748-2.9,2.623,2.623,0,0,0-4.393,0,5.377,5.377,0,0,0-.734,2.9v.223a5.325,5.325,0,0,0,.734,2.911Z" transform="translate(25.829 28.087)" fill="#f05423"/>
      <path id="Path_3941" data-name="Path 3941" d="M91.52,86.6h3.685v14.426l1.679.289v1.311H91.52v-1.311l1.666-.289V88.187L91.52,87.9Z" transform="translate(28.506 26.973)" fill="#f05423"/>
      <path id="Path_3942" data-name="Path 3942" d="M96.56,86.6h3.685v14.426l1.679.289v1.311H96.56v-1.311l1.666-.289V88.187L96.56,87.9Z" transform="translate(30.076 26.973)" fill="#f05423"/>
      <path id="Path_3943" data-name="Path 3943" d="M103,91.767a4.918,4.918,0,0,1,7.239,0,6.085,6.085,0,0,1,1.311,4.052v.223a6.072,6.072,0,0,1-1.311,4.066,4.944,4.944,0,0,1-7.252,0,6.046,6.046,0,0,1-1.311-4.052v-.223A6.085,6.085,0,0,1,103,91.767Zm1.43,7.187a2.452,2.452,0,0,0,2.2,1.154,2.426,2.426,0,0,0,2.177-1.154,5.246,5.246,0,0,0,.761-2.911V95.82a5.246,5.246,0,0,0-.761-2.9,2.623,2.623,0,0,0-4.393,0,5.377,5.377,0,0,0-.734,2.9v.223A5.246,5.246,0,0,0,104.426,98.954Z" transform="translate(31.666 28.088)" fill="#f05423"/>
      <path id="Path_3944" data-name="Path 3944" d="M113.4,91.864l1.443,5.521.236,1.311h0l.289-1.311,2.216-7.056h1.613l2.229,7.056.315,1.5h0l.3-1.5,1.311-5.521-1.311-.223V90.33h4.21v1.311l-.957.131-2.793,9.652H120.87l-2.164-6.754-.459-1.862h0l-.433,1.862-2.111,6.754h-1.626l-2.807-9.652-.97-.131V90.33h4.223v1.311Z" transform="translate(34.355 28.135)" fill="#f05423"/>
      <path id="Path_3945" data-name="Path 3945" d="M125.223,100.122a5.77,5.77,0,0,1-1.311-3.934v-.446a5.665,5.665,0,0,1,1.416-3.934,4.315,4.315,0,0,1,3.331-1.574,4.17,4.17,0,0,1,3.384,1.311,5.338,5.338,0,0,1,1.154,3.607v1.311H126.01a4.367,4.367,0,0,0,.8,2.623,2.623,2.623,0,0,0,2.19,1.036,5.062,5.062,0,0,0,1.8-.3,4.039,4.039,0,0,0,1.312-.8l.787,1.311a4.813,4.813,0,0,1-1.574.97,6.334,6.334,0,0,1-2.348.393A4.643,4.643,0,0,1,125.223,100.122Zm1.639-7.567a4.039,4.039,0,0,0-.879,2.151h5.1V94.43a3.082,3.082,0,0,0-.63-1.98,2.387,2.387,0,0,0-3.62,0Z" transform="translate(38.593 28.101)" fill="#f05423"/>
      <path id="Path_3946" data-name="Path 3946" d="M132.46,90.371h3.475l.2,1.613a3.856,3.856,0,0,1,1.154-1.311,2.754,2.754,0,0,1,1.587-.472h.485l.38.079-.262,1.875h-1.141a2.334,2.334,0,0,0-1.311.367,2.492,2.492,0,0,0-.839,1.049v6.361l1.666.289v1.311H132.5V100.22l1.666-.289V92.062l-1.666-.275Z" transform="translate(41.257 28.094)" fill="#f05423"/>
      <path id="Path_3947" data-name="Path 3947" d="M145.985,93.879l-.328-1.311a2.7,2.7,0,0,0-.931-.551,3.423,3.423,0,0,0-1.311-.21,2.308,2.308,0,0,0-1.6.472,1.456,1.456,0,0,0-.525,1.128,1.312,1.312,0,0,0,.459,1.036,4.63,4.63,0,0,0,1.875.682,8.118,8.118,0,0,1,3.121,1.22,2.479,2.479,0,0,1,1.023,2.072,2.846,2.846,0,0,1-1.193,2.387,4.918,4.918,0,0,1-3.108.918,8.013,8.013,0,0,1-2.269-.289,6.151,6.151,0,0,1-1.8-.852v-2.57h1.521l.38,1.5a2.269,2.269,0,0,0,.944.459,5.561,5.561,0,0,0,1.233.144,2.872,2.872,0,0,0,1.679-.433,1.4,1.4,0,0,0,.1-2.243,4.761,4.761,0,0,0-1.928-.748,8.144,8.144,0,0,1-3.043-1.207,2.4,2.4,0,0,1-1.023-2.046,2.925,2.925,0,0,1,1.154-2.308,4.6,4.6,0,0,1,3-.944,7.1,7.1,0,0,1,2.256.328,4.774,4.774,0,0,1,1.679.9l.092,2.452Z" transform="translate(43.378 28.087)" fill="#f05423"/>
      <path id="Path_3948" data-name="Path 3948" d="M454.49,70.747h8.184c.079,1.311,1.01,2.518,4.341,2.518H483.29c2.439,0,3.488-.931,3.488-2.033s-1.049-1.744-2.846-1.744H463.8V63.18h19.318c1.8,0,2.846-.6,2.846-1.784s-.892-1.993-3.134-2.033H466.372c-2.518,0-3.462,1.22-3.462,2.518h-8.17c0-5.036,2.807-10.282,11.8-10.282H482.8c9.364,0,12.249,4.433,12.249,8.774a6.033,6.033,0,0,1-2.807,5.246,6.3,6.3,0,0,1,3.62,5.928c0,5.01-3.462,9.443-12.6,9.443h-16.3C455.919,81.042,454.49,73.515,454.49,70.747Z" transform="translate(141.56 16.072)" fill="#AD3889"/>
      <path id="Path_3949" data-name="Path 3949" d="M488.53,66.315c0-8.288,5.862-14.715,15.043-14.715h16.275c9.18,0,15.043,6.426,15.043,14.715s-5.823,14.728-15.043,14.728H503.573C494.392,81.042,488.53,74.656,488.53,66.315Zm31.318,6.1a5.626,5.626,0,0,0,5.928-6.1,5.652,5.652,0,0,0-5.928-6.1H503.573a5.652,5.652,0,0,0-5.928,6.1,5.626,5.626,0,0,0,5.928,6.1Z" transform="translate(152.162 16.072)" fill="#AD3889"/>
      <path id="Path_3950" data-name="Path 3950" d="M525.73,66.315c0-8.288,5.823-14.715,15.043-14.715h16.275c9.18,0,15.043,6.426,15.043,14.715s-5.823,14.728-15.043,14.728H540.773C531.553,81.042,525.73,74.656,525.73,66.315Zm31.318,6.1a5.626,5.626,0,0,0,5.928-6.1,5.652,5.652,0,0,0-5.928-6.1H540.773a5.652,5.652,0,0,0-5.928,6.1,5.626,5.626,0,0,0,5.928,6.1Z" transform="translate(163.749 16.072)" fill="#AD3889"/>
      <path id="Path_3951" data-name="Path 3951" d="M569.531,68.721H562.62V62.163h6.911V54.57h7.318v7.567h6.911v6.557h-6.911v7.567h-7.318Z" transform="translate(175.239 16.997)" fill="#AD3889"/>
      <g id="Group_945" data-name="Group 945" transform="translate(627.932 112.563)">
        <path id="Path_3952" data-name="Path 3952" d="M479.9,100.119l5.246-13.469h1.731l5.128,13.469,1.089.157v1.311H488.82v-1.364l1.128-.2-.984-2.741H483l-1.01,2.741,1.128.2v1.311H478.8v-1.311Zm8.42-4.472L486,89.247h-.066l-2.348,6.4Z" transform="translate(-478.8 -85.575)" fill="#f05423"/>
        <path id="Path_3953" data-name="Path 3953" d="M493.524,90.193h2.111v1.5h-2.111v6.741a1.521,1.521,0,0,0,.328,1.089,1.154,1.154,0,0,0,.852.315h.6l.564-.092.275,1.377a2.778,2.778,0,0,1-.839.3,5.361,5.361,0,0,1-1.115.118,2.623,2.623,0,0,1-1.954-.748,3.2,3.2,0,0,1-.721-2.321v-6.78H489.76v-1.5h1.757V87.57h2.007Z" transform="translate(-475.386 -85.288)" fill="#f05423"/>
        <path id="Path_3954" data-name="Path 3954" d="M499.384,90.193H501.5v1.5h-2.111v6.741a1.521,1.521,0,0,0,.328,1.089,1.154,1.154,0,0,0,.852.315h.6l.564-.092.275,1.377a2.781,2.781,0,0,1-.839.3,5.471,5.471,0,0,1-1.115.118,2.623,2.623,0,0,1-1.954-.748,3.2,3.2,0,0,1-.721-2.321v-6.78H495.62v-1.5h1.81V87.57h2.007Z" transform="translate(-473.561 -85.288)" fill="#f05423"/>
        <path id="Path_3955" data-name="Path 3955" d="M503.048,99.352a5.77,5.77,0,0,1-1.377-3.934v-.446a5.666,5.666,0,0,1,1.416-3.934,4.315,4.315,0,0,1,3.331-1.574,4.171,4.171,0,0,1,3.384,1.311,5.338,5.338,0,0,1,1.154,3.607v1.311h-7.187a4.459,4.459,0,0,0,.813,2.623,2.623,2.623,0,0,0,2.19,1.036,5.062,5.062,0,0,0,1.8-.3,4.038,4.038,0,0,0,1.312-.8l.787,1.311a4.812,4.812,0,0,1-1.574.97,6.335,6.335,0,0,1-2.348.393,4.643,4.643,0,0,1-3.7-1.574Zm1.679-7.5A4.039,4.039,0,0,0,503.848,94h5.115v-.275a3.082,3.082,0,0,0-.63-1.98,2.243,2.243,0,0,0-1.888-.8A2.2,2.2,0,0,0,504.727,91.85Z" transform="translate(-471.677 -84.703)" fill="#f05423"/>
        <path id="Path_3956" data-name="Path 3956" d="M511.718,99.114V91.245L510,90.918V89.606h3.475l.144,1.652a3.936,3.936,0,0,1,1.39-1.311,3.633,3.633,0,0,1,1.9-.485,3.568,3.568,0,0,1,2.767,1.049,4.6,4.6,0,0,1,.984,3.239v5.416l1.679.289v1.311h-5.364V99.35l1.666-.289V93.685a2.95,2.95,0,0,0-.577-2.072A2.256,2.256,0,0,0,516.308,91a2.767,2.767,0,0,0-1.548.42,3.108,3.108,0,0,0-1.075,1.141v6.557l1.679.289v1.311H510V99.35Z" transform="translate(-469.082 -84.701)" fill="#f05423"/>
        <path id="Path_3957" data-name="Path 3957" d="M526.63,101.646a4.013,4.013,0,0,1-1.823.393,3.764,3.764,0,0,1-3.161-1.469,6.072,6.072,0,0,1-1.154-3.869v-.157a7.305,7.305,0,0,1,1.154-4.315,3.646,3.646,0,0,1,3.187-1.639,4,4,0,0,1,1.731.354,3.58,3.58,0,0,1,1.312,1.062V87.43l-1.666-.289V85.83H529.9v14.426l1.679.289v1.311h-3.423l-.171-1.311A3.449,3.449,0,0,1,526.63,101.646Zm-3.423-2.256a2.374,2.374,0,0,0,2.111,1.01,2.623,2.623,0,0,0,1.521-.407,3.107,3.107,0,0,0,1.01-1.154V93.686a3.029,3.029,0,0,0-1.01-1.1,2.622,2.622,0,0,0-1.5-.407,2.3,2.3,0,0,0-2.138,1.193,6.217,6.217,0,0,0-.734,3.174v.21a4.721,4.721,0,0,0,.734,2.636Z" transform="translate(-465.817 -85.83)" fill="#f05423"/>
        <path id="Path_3958" data-name="Path 3958" d="M531.454,99.367a5.758,5.758,0,0,1-1.312-4v-.446a5.652,5.652,0,0,1,1.4-3.934,4.341,4.341,0,0,1,3.331-1.574,4.17,4.17,0,0,1,3.384,1.311,5.338,5.338,0,0,1,1.154,3.607v1.311h-7.187a4.369,4.369,0,0,0,.8,2.623,2.623,2.623,0,0,0,2.177,1.1,5.062,5.062,0,0,0,1.8-.3,4.039,4.039,0,0,0,1.312-.8l.787,1.311a4.815,4.815,0,0,1-1.574.97,6.283,6.283,0,0,1-2.348.393,4.643,4.643,0,0,1-3.724-1.574Zm1.639-7.515A4.038,4.038,0,0,0,532.214,94h5.1v-.275a3.081,3.081,0,0,0-.629-1.98,2.387,2.387,0,0,0-3.62,0Z" transform="translate(-462.811 -84.718)" fill="#f05423"/>
        <path id="Path_3959" data-name="Path 3959" d="M545.592,93.106l-.328-1.311a2.7,2.7,0,0,0-.931-.551,3.423,3.423,0,0,0-1.312-.21,2.334,2.334,0,0,0-1.6.472,1.509,1.509,0,0,0-.525,1.128,1.312,1.312,0,0,0,.459,1.036,4.721,4.721,0,0,0,1.875.682,8.2,8.2,0,0,1,3.134,1.22,2.479,2.479,0,0,1,1.023,2.072,2.924,2.924,0,0,1-1.193,2.4,5.036,5.036,0,0,1-3.121.9,8.065,8.065,0,0,1-2.269-.289,6.073,6.073,0,0,1-1.784-.852V97.251h1.508l.38,1.5a2.256,2.256,0,0,0,.957.459,5.351,5.351,0,0,0,1.22.144,2.833,2.833,0,0,0,1.679-.433,1.4,1.4,0,0,0,.1-2.243,4.7,4.7,0,0,0-1.915-.748,8.052,8.052,0,0,1-3.043-1.207,2.4,2.4,0,0,1-1.023-2.046,2.912,2.912,0,0,1,1.141-2.308,4.6,4.6,0,0,1,3-.944,7.187,7.187,0,0,1,2.269.328,4.709,4.709,0,0,1,1.666.9l.1,2.452Z" transform="translate(-460.084 -84.713)" fill="#f05423"/>
        <path id="Path_3960" data-name="Path 3960" d="M553.749,93.106l-.328-1.311a2.7,2.7,0,0,0-.931-.551,3.423,3.423,0,0,0-1.312-.21,2.308,2.308,0,0,0-1.574.459,1.456,1.456,0,0,0-.525,1.128,1.312,1.312,0,0,0,.459,1.036,4.63,4.63,0,0,0,1.875.682,8.117,8.117,0,0,1,3.121,1.22,2.479,2.479,0,0,1,1.023,2.072,2.885,2.885,0,0,1-1.193,2.4,5,5,0,0,1-3.108.9,8.014,8.014,0,0,1-2.269-.289,6.152,6.152,0,0,1-1.8-.852V97.251h1.521l.38,1.5a2.269,2.269,0,0,0,.944.459,5.56,5.56,0,0,0,1.233.144,2.872,2.872,0,0,0,1.679-.433,1.4,1.4,0,0,0,.1-2.243,4.759,4.759,0,0,0-1.928-.748,8.144,8.144,0,0,1-3.043-1.207,2.4,2.4,0,0,1-1.023-2.046,2.924,2.924,0,0,1,1.154-2.308,4.6,4.6,0,0,1,3-.944,7.1,7.1,0,0,1,2.256.328,4.774,4.774,0,0,1,1.679.9l.092,2.452Z" transform="translate(-457.539 -84.713)" fill="#f05423"/>
      </g>
      <path id="Path_3961" data-name="Path 3961" d="M208.63,19.032h8.984c.092,1.311,1.023,2.531,3.5,2.531h16.262c2.4,0,3.541-.852,3.58-2.321,0-1.062-1.01-2.033-3.292-2.033H208.814L210.125.37h38.583V8.239H217.784l-.118,2.033H238.65c8.17,0,11.384,4.184,11.384,8.984h0c0,4.839-2.846,10.085-12.656,10.085H221.115C210.059,29.327,208.63,21.8,208.63,19.032Z" transform="translate(64.982 0.115)" fill="#AD3889"/>
      <path id="Path_3962" data-name="Path 3962" d="M242.7,14.715C242.7,6.426,248.51,0,257.743,0h16.275c9.18,0,15.043,6.426,15.043,14.715s-5.823,14.728-15.043,14.728H257.743C248.51,29.442,242.7,23.056,242.7,14.715Zm31.318,6.111a5.639,5.639,0,0,0,5.928-6.111,5.652,5.652,0,0,0-5.928-6.1H257.743a5.652,5.652,0,0,0-5.928,6.1,5.639,5.639,0,0,0,5.928,6.111Z" transform="translate(75.594)" fill="#AD3889"/>
      <path id="Path_3963" data-name="Path 3963" d="M279.9,14.715C279.9,6.426,285.71,0,294.943,0h16.275c9.18,0,15.043,6.426,15.043,14.715s-5.823,14.728-15.043,14.728H294.943C285.71,29.442,279.9,23.056,279.9,14.715Zm31.318,6.111a5.639,5.639,0,0,0,5.928-6.111,5.652,5.652,0,0,0-5.928-6.1H294.943a5.652,5.652,0,0,0-5.928,6.1,5.639,5.639,0,0,0,5.928,6.111Z" transform="translate(87.18)" fill="#AD3889"/>
      <path id="Path_3964" data-name="Path 3964" d="M317.1,14.715C317.1,6.426,322.923,0,332.143,0h16.3c9.18,0,15.043,6.426,15.043,14.715s-5.862,14.728-15.043,14.728h-16.3C322.923,29.442,317.1,23.056,317.1,14.715Zm31.344,6.111a5.639,5.639,0,0,0,5.928-6.111,5.652,5.652,0,0,0-5.928-6.1h-16.3a5.652,5.652,0,0,0-5.928,6.1,5.639,5.639,0,0,0,5.928,6.111Z" transform="translate(98.767)" fill="#AD3889"/>
      <path id="Path_3965" data-name="Path 3965" d="M360.9,17.125H354V10.567h6.911V3h7.318v7.528h6.911v6.557h-6.911v7.554h-7.318Z" transform="translate(110.26 0.934)" fill="#AD3889"/>
      <path id="Path_3966" data-name="Path 3966" d="M235.84,39.8l-1.666.289V53.413h-2.02L224.981,41.9h-.066v9.915l1.666.289v1.311H221.23V52.1l1.666-.289V40.01l-1.666-.289V38.41h3.633l7.174,11.5h.066V40.089l-1.679-.289V38.489h5.364Z" transform="translate(68.906 11.964)" fill="#f05423"/>
      <path id="Path_3967" data-name="Path 3967" d="M234.938,51.2a5.771,5.771,0,0,1-1.377-4v-.446a5.692,5.692,0,0,1,1.416-3.934,4.3,4.3,0,0,1,3.331-1.561,4.17,4.17,0,0,1,3.384,1.311,5.325,5.325,0,0,1,1.154,3.607v1.311H235.66a4.458,4.458,0,0,0,.813,2.623,2.623,2.623,0,0,0,2.19,1.036,5.063,5.063,0,0,0,1.8-.3,4.275,4.275,0,0,0,1.311-.8l.787,1.311a4.813,4.813,0,0,1-1.574.97,6.335,6.335,0,0,1-2.348.393,4.643,4.643,0,0,1-3.7-1.521Zm1.639-7.515a4.039,4.039,0,0,0-.879,2.151h5.1v-.262a3.082,3.082,0,0,0-.629-1.98,2.243,2.243,0,0,0-1.889-.8A2.177,2.177,0,0,0,236.578,43.689Z" transform="translate(72.746 12.848)" fill="#f05423"/>
      <path id="Path_3968" data-name="Path 3968" d="M244.888,42.941l1.443,5.521.236,1.311h.066l.289-1.311,2.2-7.056h1.626l2.216,7.056.328,1.5h0l.3-1.5,1.311-5.521L253.6,42.7V41.393h4.223V42.7l-.957.144-2.793,9.639h-1.561l-2.151-6.741-.472-1.875h0l-.42,1.862-2.111,6.741h-1.639l-2.793-9.639-.97-.144V41.38h4.223v1.311Z" transform="translate(75.36 12.889)" fill="#f05423"/>
      <path id="Path_3969" data-name="Path 3969" d="M262.3,44.936l-.328-1.311a2.833,2.833,0,0,0-.931-.551,3.476,3.476,0,0,0-1.312-.21,2.308,2.308,0,0,0-1.6.472,1.416,1.416,0,0,0-.525,1.128,1.312,1.312,0,0,0,.459,1.036,4.747,4.747,0,0,0,1.875.682,8.118,8.118,0,0,1,3.121,1.22,2.466,2.466,0,0,1,1.023,2.072,2.846,2.846,0,0,1-1.193,2.387,4.931,4.931,0,0,1-3.121.918,8.485,8.485,0,0,1-2.256-.289,6.151,6.151,0,0,1-1.8-.852V49.081h1.521l.38,1.482a2.072,2.072,0,0,0,.944.472,5.534,5.534,0,0,0,1.22.144,2.793,2.793,0,0,0,1.692-.446,1.4,1.4,0,0,0,.1-2.23,4.761,4.761,0,0,0-1.928-.748,8.144,8.144,0,0,1-3.043-1.207A2.4,2.4,0,0,1,255.58,44.5a2.9,2.9,0,0,1,1.154-2.308,4.6,4.6,0,0,1,3-.944,7.1,7.1,0,0,1,2.256.328,4.577,4.577,0,0,1,1.679.9l.092,2.452Z" transform="translate(79.605 12.847)" fill="#f05423"/>
      <path id="Path_3970" data-name="Path 3970" d="M263.33,37.67h3.685V52.1l1.679.289V53.7H263.33V52.385L265,52.1V39.257l-1.666-.289Z" transform="translate(82.019 11.733)" fill="#f05423"/>
      <path id="Path_3971" data-name="Path 3971" d="M269.943,51.2a5.823,5.823,0,0,1-1.311-4v-.446a5.744,5.744,0,0,1,1.4-3.934,4.354,4.354,0,0,1,3.344-1.561,4.2,4.2,0,0,1,3.384,1.311,5.39,5.39,0,0,1,1.154,3.607v1.311h-7.2a4.275,4.275,0,0,0,.813,2.623,2.623,2.623,0,0,0,2.177,1.036,5.01,5.01,0,0,0,1.8-.3,4.275,4.275,0,0,0,1.312-.8l.787,1.311a4.813,4.813,0,0,1-1.574.97,6.229,6.229,0,0,1-2.348.393,4.656,4.656,0,0,1-3.738-1.521Zm1.639-7.515a4.144,4.144,0,0,0-.879,2.151h5.115v-.262a3.016,3.016,0,0,0-.643-1.98,2.23,2.23,0,0,0-1.875-.8,2.19,2.19,0,0,0-1.718.892Z" transform="translate(83.668 12.848)" fill="#f05423"/>
      <path id="Path_3972" data-name="Path 3972" d="M280.764,42.023h2.1v1.5h-2.1v6.728a1.482,1.482,0,0,0,.328,1.1,1.154,1.154,0,0,0,.852.315h.59l.564-.1.275,1.39a2.622,2.622,0,0,1-.839.3,5.246,5.246,0,0,1-1.1.118,2.623,2.623,0,0,1-1.967-.748,3.239,3.239,0,0,1-.721-2.334V43.518H277v-1.5h1.757V39.4h2.02Z" transform="translate(86.277 12.272)" fill="#f05423"/>
      <path id="Path_3973" data-name="Path 3973" d="M286.627,42.023h2.1v1.5h-2.1v6.728a1.534,1.534,0,0,0,.315,1.1,1.207,1.207,0,0,0,.866.315h.59l.564-.1.275,1.39a2.622,2.622,0,0,1-.839.3,5.246,5.246,0,0,1-1.1.118,2.623,2.623,0,0,1-1.967-.748,3.24,3.24,0,0,1-.721-2.334V43.518H282.85v-1.5h1.757V39.4h2.02Z" transform="translate(88.099 12.272)" fill="#f05423"/>
      <path id="Path_3974" data-name="Path 3974" d="M290.313,51.2a5.823,5.823,0,0,1-1.312-4v-.446a5.744,5.744,0,0,1,1.4-3.934,4.354,4.354,0,0,1,3.344-1.561,4.2,4.2,0,0,1,3.384,1.311,5.39,5.39,0,0,1,1.049,3.593v1.311h-7.213a4.276,4.276,0,0,0,.813,2.623,2.623,2.623,0,0,0,2.177,1.036,5.01,5.01,0,0,0,1.8-.3,4.275,4.275,0,0,0,1.312-.8l.787,1.311a4.813,4.813,0,0,1-1.574.97,6.229,6.229,0,0,1-2.348.393,4.656,4.656,0,0,1-3.62-1.508Zm1.652-7.515a4.053,4.053,0,0,0-.892,2.151h5.115v-.262a3.017,3.017,0,0,0-.643-1.98,2.23,2.23,0,0,0-1.875-.8,2.151,2.151,0,0,0-1.771.892Z" transform="translate(90.013 12.848)" fill="#f05423"/>
      <path id="Path_3975" data-name="Path 3975" d="M297.5,41.443h3.475l.2,1.613a3.935,3.935,0,0,1,1.167-1.311,2.715,2.715,0,0,1,1.574-.472,3.017,3.017,0,0,1,.485,0l.393.079-.275,1.875h-1.141a2.269,2.269,0,0,0-1.311.38,2.518,2.518,0,0,0-.852,1.049v6.361l1.679.289v1.311H297.5V51.305l1.679-.289V43.148l-1.679-.289Z" transform="translate(92.662 12.852)" fill="#f05423"/>
      <path id="Path_3976" data-name="Path 3976" d="M318.229,39.573a3.777,3.777,0,0,1,1.312,3.069,3.213,3.213,0,0,1-.6,1.928,4.078,4.078,0,0,1-1.731,1.311,3,3,0,0,1,1.757,1.311,4.314,4.314,0,0,1,.538,2.23v1.193a2.19,2.19,0,0,0,.17,1.01.747.747,0,0,0,.577.393l.5.066V53.4h-1.089a1.8,1.8,0,0,1-1.679-.813,3.8,3.8,0,0,1-.5-1.993V49.436a2.688,2.688,0,0,0-.708-1.954,2.466,2.466,0,0,0-1.888-.734h-3.239v5.075l1.666.289v1.311H308V52.111l1.666-.289v-11.8L308,39.783V38.472h6.557a5.692,5.692,0,0,1,3.672,1.1ZM314.3,45.16a3.8,3.8,0,0,0,2.466-.656,2.282,2.282,0,0,0,.761-1.875,2.466,2.466,0,0,0-.734-1.875,3.344,3.344,0,0,0-2.282-.682h-2.859V45.16Z" transform="translate(95.933 11.98)" fill="#f05423"/>
      <path id="Path_3977" data-name="Path 3977" d="M320.313,51.2a5.823,5.823,0,0,1-1.311-4v-.446a5.692,5.692,0,0,1,1.416-3.934,4.3,4.3,0,0,1,3.331-1.561,4.2,4.2,0,0,1,3.384,1.311,5.325,5.325,0,0,1,1.049,3.593v1.311H321a4.367,4.367,0,0,0,.813,2.623,2.623,2.623,0,0,0,2.177,1.036,5.01,5.01,0,0,0,1.8-.3,3.935,3.935,0,0,0,1.311-.8l.8,1.311a5.1,5.1,0,0,1-1.574.97,6.347,6.347,0,0,1-2.361.393A4.682,4.682,0,0,1,320.313,51.2Zm1.652-7.515a3.935,3.935,0,0,0-.879,2.151H326.2v-.262a3.082,3.082,0,0,0-.63-1.98,2.282,2.282,0,0,0-1.888-.8,2.151,2.151,0,0,0-1.757.892Z" transform="translate(99.357 12.848)" fill="#f05423"/>
      <path id="Path_3978" data-name="Path 3978" d="M334.579,51.73a2.643,2.643,0,0,0-.066-.721,4.852,4.852,0,0,1-1.469,1.311,4.157,4.157,0,0,1-4.5-.354,3.082,3.082,0,0,1-.9-2.374,2.78,2.78,0,0,1,1.311-2.439,6.2,6.2,0,0,1,3.488-.852h2.085V44.989a2.02,2.02,0,0,0-.616-1.548,2.413,2.413,0,0,0-1.7-.564,4.512,4.512,0,0,0-1.311.184,2.519,2.519,0,0,0-.944.538l-.21,1.167h-1.626v-2.19a6.1,6.1,0,0,1,1.836-.97,7.449,7.449,0,0,1,2.334-.354,4.656,4.656,0,0,1,3.056.957,3.383,3.383,0,0,1,1.167,2.754v6.164l.826.118v1.311H334.71A3.634,3.634,0,0,0,334.579,51.73Zm-1.311-1.154a2.977,2.977,0,0,0,1.193-1.154V47.6H332.31a3.03,3.03,0,0,0-1.967.577,1.731,1.731,0,0,0-.721,1.39,1.39,1.39,0,0,0,.459,1.115,2.046,2.046,0,0,0,1.312.38,3.488,3.488,0,0,0,1.967-.485Z" transform="translate(102.049 12.847)" fill="#f05423"/>
      <path id="Path_3979" data-name="Path 3979" d="M343.1,50.553a1.875,1.875,0,0,0,.761-1.521h1.823a3.056,3.056,0,0,1-1.311,2.544,4.629,4.629,0,0,1-3.1,1.115,4.485,4.485,0,0,1-3.685-1.574,6.124,6.124,0,0,1-1.312-3.934V46.75a6.1,6.1,0,0,1,1.311-3.934,4.485,4.485,0,0,1,3.685-1.574,6.308,6.308,0,0,1,2.4.433,4.826,4.826,0,0,1,1.757,1.207l.092,2.466h-1.613L343.48,43.6a2.714,2.714,0,0,0-.931-.564,3.5,3.5,0,0,0-1.311-.21,2.452,2.452,0,0,0-2.269,1.141,5.442,5.442,0,0,0-.682,2.793V47.2a5.455,5.455,0,0,0,.774,2.911,2.426,2.426,0,0,0,2.269,1.141A2.623,2.623,0,0,0,343.1,50.553Z" transform="translate(104.741 12.843)" fill="#f05423"/>
      <path id="Path_3980" data-name="Path 3980" d="M346.4,52.073V39.26l-1.679-.289V37.66h3.685v6.374a4.091,4.091,0,0,1,1.4-1.311,4,4,0,0,1,1.849-.433,3.58,3.58,0,0,1,2.767,1.062,4.7,4.7,0,0,1,.984,3.279v5.364l1.666.289v1.311h-5.351V52.283l1.666-.289V46.683a2.925,2.925,0,0,0-.59-2.02,2.2,2.2,0,0,0-1.757-.656,2.977,2.977,0,0,0-1.508.393,3.357,3.357,0,0,0-1.128,1.062v6.557l1.679.289v1.311H344.72V52.309Z" transform="translate(107.37 11.73)" fill="#f05423"/>
      <path id="Path_3981" data-name="Path 3981" d="M202.476,144.125h-2.623v4.144h-8.538v-4.184H159.84v-7.725L166.4,119.85h33.547v16.708h2.623Zm-11.134-7.607v-8.866H171.984l-3.5,8.866Z" transform="translate(49.785 37.33)" fill="#AD3889"/>
      <path id="Path_3982" data-name="Path 3982" d="M194.83,134.165c0-8.288,5.81-14.715,15.043-14.715h16.262c9.18,0,15.043,6.426,15.043,14.715s-5.81,14.728-15.043,14.728H209.873C200.64,148.892,194.83,142.466,194.83,134.165Zm31.3,6.1a6.1,6.1,0,0,0,0-12.2H209.873a6.1,6.1,0,0,0,0,12.2Z" transform="translate(60.684 37.205)" fill="#AD3889"/>
      <path id="Path_3983" data-name="Path 3983" d="M232,134.165c0-8.288,5.81-14.715,15.043-14.715H263.3c9.18,0,15.043,6.426,15.043,14.715s-5.81,14.728-15.043,14.728H247.082C237.849,148.892,232,142.466,232,134.165Zm31.3,6.1a6.1,6.1,0,1,0,0-12.2H247.082a6.1,6.1,0,0,0,0,12.2Z" transform="translate(72.261 37.205)" fill="#AD3889"/>
      <path id="Path_3984" data-name="Path 3984" d="M275.831,136.565H268.92v-6.557h6.911V122.44h7.318v7.567h6.859v6.557H283.1v7.593h-7.318Z" transform="translate(83.76 38.136)" fill="#AD3889"/>
      <path id="Path_3985" data-name="Path 3985" d="M129.748,173.494l4.892-5.429a12.575,12.575,0,0,0,1.77-2.321,3.645,3.645,0,0,0,.472-1.757,2.833,2.833,0,0,0-.656-1.889,2.151,2.151,0,0,0-1.731-.761,2.977,2.977,0,0,0-2.282.787,3.174,3.174,0,0,0-.721,2.229h-1.941a4.21,4.21,0,0,1,1.311-3.239,5.01,5.01,0,0,1,3.685-1.311,4.419,4.419,0,0,1,3.213,1.167,4.065,4.065,0,0,1,1.193,2.99,4.839,4.839,0,0,1-.721,2.439,16.656,16.656,0,0,1-2.033,2.623l-3.934,4.275h5.246l.157-1.7h1.718v3.292h-9.639Z" transform="translate(40.35 49.771)" fill="#f05423"/>
      <path id="Path_3986" data-name="Path 3986" d="M146.965,173.582a4.275,4.275,0,0,1-3.475,1.521,4.328,4.328,0,0,1-3.475-1.521,6.662,6.662,0,0,1-1.312-4.38v-3.528a6.728,6.728,0,0,1,1.311-4.38,4.708,4.708,0,0,1,6.951,0,6.662,6.662,0,0,1,1.311,4.38v3.58A6.689,6.689,0,0,1,146.965,173.582Zm-1.456-11.252a2.334,2.334,0,0,0-2.046-.984,2.3,2.3,0,0,0-2.007.984,4.9,4.9,0,0,0-.708,2.911v4.367a4.983,4.983,0,0,0,.708,2.925,2.623,2.623,0,0,0,4.066,0,5.141,5.141,0,0,0,.7-2.938v-4.367a4.9,4.9,0,0,0-.708-2.9Z" transform="translate(43.198 49.761)" fill="#f05423"/>
      <path id="Path_3987" data-name="Path 3987" d="M147.708,173.494l4.892-5.429a12.576,12.576,0,0,0,1.77-2.321,3.646,3.646,0,0,0,.472-1.757,2.833,2.833,0,0,0-.656-1.889,2.151,2.151,0,0,0-1.731-.761,2.938,2.938,0,0,0-2.269.787,3.174,3.174,0,0,0-.734,2.23h-1.941a4.21,4.21,0,0,1,1.311-3.239,5.01,5.01,0,0,1,3.685-1.311,4.419,4.419,0,0,1,3.213,1.167,4.013,4.013,0,0,1,1.193,2.99,4.721,4.721,0,0,1-.721,2.439,16.654,16.654,0,0,1-2.033,2.623l-3.934,4.275h5.246l.17-1.7h1.692v3.292h-9.666Z" transform="translate(45.944 49.771)" fill="#f05423"/>
      <path id="Path_3989" data-name="Path 3989" d="M170.375,173.4l5.246-13.482h1.731L182.48,173.4l1.1.144v1.311h-4.289v-1.311l1.128-.184-.984-2.754h-5.98l-1.01,2.754,1.128.184v1.311H169.3v-1.311Zm8.407-4.485-2.321-6.4h0l-2.361,6.4Z" transform="translate(52.732 49.81)" fill="#f05423"/>
      <path id="Path_3990" data-name="Path 3990" d="M184.007,163.46h2.1v1.521h-2.1v6.728a1.521,1.521,0,0,0,.315,1.089,1.167,1.167,0,0,0,.866.328,5.43,5.43,0,0,0,.59,0l.564-.092.275,1.311a2.36,2.36,0,0,1-.839.3,5.246,5.246,0,0,1-1.1.118,2.623,2.623,0,0,1-1.967-.734,3.239,3.239,0,0,1-.721-2.334v-6.715H180.23v-1.508h1.757V160.85h2.02Z" transform="translate(56.136 50.1)" fill="#f05423"/>
      <path id="Path_3991" data-name="Path 3991" d="M189.9,163.46H192v1.521h-2.1v6.728a1.521,1.521,0,0,0,.315,1.089,1.167,1.167,0,0,0,.866.328,5.432,5.432,0,0,0,.59,0l.564-.092.275,1.311a2.466,2.466,0,0,1-.839.3,5.247,5.247,0,0,1-1.1.118,2.623,2.623,0,0,1-1.967-.734,3.239,3.239,0,0,1-.721-2.334v-6.715H186.12v-1.508h1.757V160.85h2.02Z" transform="translate(57.971 50.1)" fill="#f05423"/>
      <path id="Path_3992" data-name="Path 3992" d="M193.5,172.645a5.849,5.849,0,0,1-1.311-3.934v-.459a5.718,5.718,0,0,1,1.4-3.934,4.354,4.354,0,0,1,3.331-1.574,4.21,4.21,0,0,1,3.4,1.311,5.4,5.4,0,0,1,1.154,3.607v1.311h-7.2a4.367,4.367,0,0,0,.8,2.623,2.623,2.623,0,0,0,2.19,1.036,5.325,5.325,0,0,0,1.8-.289,4.3,4.3,0,0,0,1.311-.813l.787,1.311a4.813,4.813,0,0,1-1.574.97,6.282,6.282,0,0,1-2.348.393A4.7,4.7,0,0,1,193.5,172.645Zm1.639-7.528a4.2,4.2,0,0,0-.879,2.151h5.115v-.249a3.042,3.042,0,0,0-.643-1.98,2.387,2.387,0,0,0-3.62,0Z" transform="translate(59.86 50.685)" fill="#f05423"/>
      <path id="Path_3993" data-name="Path 3993" d="M202.189,172.375v-7.869l-1.679-.289v-1.311h3.475l.144,1.652a4.066,4.066,0,0,1,1.39-1.311,3.7,3.7,0,0,1,1.9-.485,3.646,3.646,0,0,1,2.78,1.049,4.6,4.6,0,0,1,.984,3.239v5.416l1.666.289v1.311h-5.364v-1.311l1.679-.289v-5.456a3.017,3.017,0,0,0-.577-2.072,2.308,2.308,0,0,0-1.77-.616,2.793,2.793,0,0,0-1.548.42,2.977,2.977,0,0,0-1.062,1.141v6.557l1.666.289v1.311H200.51v-1.311Z" transform="translate(62.453 50.693)" fill="#f05423"/>
      <path id="Path_3994" data-name="Path 3994" d="M217.1,174.945a4.131,4.131,0,0,1-1.81.38,3.79,3.79,0,0,1-3.174-1.469,6.138,6.138,0,0,1-1.141-3.934v-.21a7.4,7.4,0,0,1,1.141-4.315,3.672,3.672,0,0,1,3.187-1.639,3.935,3.935,0,0,1,1.744.367,3.528,3.528,0,0,1,1.311,1.049V160.65l-1.679-.289V159.05h3.7v14.426l1.666.289v1.311h-3.423l-.157-1.311a3.62,3.62,0,0,1-1.364,1.18Zm-3.462-2.269a2.4,2.4,0,0,0,2.125,1.01,2.623,2.623,0,0,0,1.508-.407,3.147,3.147,0,0,0,1.023-1.154v-5.154a3.174,3.174,0,0,0-1.023-1.1,2.623,2.623,0,0,0-1.5-.407,2.308,2.308,0,0,0-2.138,1.193,6.216,6.216,0,0,0-.682,3.121v.21A4.722,4.722,0,0,0,213.635,172.676Z" transform="translate(65.708 49.539)" fill="#f05423"/>
      <path id="Path_3995" data-name="Path 3995" d="M221.923,172.645a5.849,5.849,0,0,1-1.311-3.934v-.459a5.718,5.718,0,0,1,1.4-3.934,4.367,4.367,0,0,1,3.344-1.574,4.2,4.2,0,0,1,3.384,1.311,5.4,5.4,0,0,1,1.154,3.607v1.311h-7.2a4.367,4.367,0,0,0,.813,2.623,2.544,2.544,0,0,0,2.177,1.036,5.325,5.325,0,0,0,1.8-.289,4.013,4.013,0,0,0,1.311-.813l.787,1.311a4.813,4.813,0,0,1-1.574.97,6.229,6.229,0,0,1-2.348.393,4.7,4.7,0,0,1-3.738-1.561Zm1.652-7.528a4.092,4.092,0,0,0-.892,2.151H227.8v-.249a3.043,3.043,0,0,0-.643-1.98,2.23,2.23,0,0,0-1.875-.8,2.19,2.19,0,0,0-1.7.879Z" transform="translate(68.712 50.686)" fill="#f05423"/>
      <path id="Path_3996" data-name="Path 3996" d="M236.072,166.373l-.328-1.311a2.845,2.845,0,0,0-.931-.564,3.541,3.541,0,0,0-1.311-.21,2.361,2.361,0,0,0-1.6.472,1.5,1.5,0,0,0-.511,1.141,1.311,1.311,0,0,0,.459,1.036,4.786,4.786,0,0,0,1.875.669,8.119,8.119,0,0,1,3.121,1.22,2.5,2.5,0,0,1,1.023,2.085,2.859,2.859,0,0,1-1.193,2.387,5.01,5.01,0,0,1-3.121.9,7.975,7.975,0,0,1-2.256-.289,5.836,5.836,0,0,1-1.8-.852v-2.518h1.521l.38,1.482a1.993,1.993,0,0,0,.944.459,5.444,5.444,0,0,0,1.22.144,2.885,2.885,0,0,0,1.692-.433,1.312,1.312,0,0,0,.6-1.141,1.4,1.4,0,0,0-.5-1.1,4.761,4.761,0,0,0-1.928-.748,8.053,8.053,0,0,1-3.043-1.193,2.439,2.439,0,0,1-1.023-2.059,2.872,2.872,0,0,1,1.154-2.3,4.5,4.5,0,0,1,2.99-.957,7.188,7.188,0,0,1,2.269.328,4.931,4.931,0,0,1,1.666.9l.1,2.452Z" transform="translate(71.442 50.675)" fill="#f05423"/>
      <path id="Path_3997" data-name="Path 3997" d="M244.222,166.361l-.328-1.311a2.714,2.714,0,0,0-.931-.564,3.422,3.422,0,0,0-1.311-.21,2.335,2.335,0,0,0-1.6.472,1.508,1.508,0,0,0-.525,1.141,1.311,1.311,0,0,0,.459,1.036,4.971,4.971,0,0,0,1.875.669,8.2,8.2,0,0,1,3.134,1.22,2.5,2.5,0,0,1,1.023,2.138,2.9,2.9,0,0,1-1.193,2.387,5.036,5.036,0,0,1-3.121.9,8.064,8.064,0,0,1-2.269-.289,5.758,5.758,0,0,1-1.784-.852v-2.518h1.508l.38,1.482a2.111,2.111,0,0,0,.957.459,5.349,5.349,0,0,0,1.22.144,2.833,2.833,0,0,0,1.679-.433,1.311,1.311,0,0,0,.616-1.141,1.377,1.377,0,0,0-.511-1.1,4.7,4.7,0,0,0-1.915-.748,8.053,8.053,0,0,1-3.043-1.193,2.439,2.439,0,0,1-1.023-2.059,2.885,2.885,0,0,1,1.141-2.3,4.538,4.538,0,0,1,3-.957,7.187,7.187,0,0,1,2.269.328,4.931,4.931,0,0,1,1.666.9l.1,2.452Z" transform="translate(73.98 50.687)" fill="#f05423"/>
      <path id="Path_3998" data-name="Path 3998" d="M261.443,163.225h-1.718l-.157-1.718h-3.3v11.8l1.666.289v1.311h-5.364V173.6l1.679-.289v-11.8h-3.318l-.144,1.718H249.05v-3.3h12.393Z" transform="translate(77.572 49.81)" fill="#f05423"/>
      <path id="Path_3999" data-name="Path 3999" d="M265.649,173.17a6.4,6.4,0,0,1-.079-.721,4.8,4.8,0,0,1-1.456,1.311,4.184,4.184,0,0,1-4.5-.341,3.108,3.108,0,0,1-.9-2.387,2.741,2.741,0,0,1,1.312-2.426,6.177,6.177,0,0,1,3.5-.866H265.6v-1.311a2.007,2.007,0,0,0-.6-1.548,2.439,2.439,0,0,0-1.718-.564,4.224,4.224,0,0,0-1.312.2,2.544,2.544,0,0,0-.931.525l-.223,1.167h-1.561v-2.19a6.229,6.229,0,0,1,1.836-.957,7.082,7.082,0,0,1,2.334-.367,4.63,4.63,0,0,1,3.056.957,3.344,3.344,0,0,1,1.167,2.754v6.177l.813.1V174h-2.623A3.282,3.282,0,0,1,265.649,173.17Zm-1.311-1.141a2.964,2.964,0,0,0,1.18-1.167v-1.823h-2.1a3.043,3.043,0,0,0-1.954.577,1.718,1.718,0,0,0-.721,1.39,1.39,1.39,0,0,0,.446,1.115,2.046,2.046,0,0,0,1.311.38,3.646,3.646,0,0,0,1.836-.472Z" transform="translate(80.579 50.672)" fill="#f05423"/>
      <path id="Path_4000" data-name="Path 4000" d="M267.41,162.886h3.475l.2,1.613a3.857,3.857,0,0,1,1.167-1.311,2.623,2.623,0,0,1,1.574-.485,3.031,3.031,0,0,1,.485,0,2.019,2.019,0,0,1,.393.066l-.275,1.875h-1.141a2.269,2.269,0,0,0-1.311.367,2.4,2.4,0,0,0-.839,1.049v6.361l1.666.289v1.311h-5.364v-1.311l1.679-.289v-7.869l-1.679-.289Z" transform="translate(83.29 50.674)" fill="#f05423"/>
      <path id="Path_4001" data-name="Path 4001" d="M275.063,164.33a3.738,3.738,0,0,1,3.226-1.639,3.935,3.935,0,0,1,1.836.407,3.593,3.593,0,0,1,1.311,1.193l.184-1.4h1.692v10.951a4.656,4.656,0,0,1-1.193,3.384,4.524,4.524,0,0,1-3.41,1.233,6.962,6.962,0,0,1-1.731-.223,6.871,6.871,0,0,1-1.639-.59l.525-1.574a6.4,6.4,0,0,0,2.82.7,2.479,2.479,0,0,0,1.993-.761,3.318,3.318,0,0,0,.63-2.164v-1.062a3.514,3.514,0,0,1-1.311,1.062,4,4,0,0,1-1.731.354,3.856,3.856,0,0,1-3.213-1.469,6.072,6.072,0,0,1-1.167-3.934v-.21a7.305,7.305,0,0,1,1.18-4.249Zm1.561,7.213a2.452,2.452,0,0,0,2.151,1.01,2.623,2.623,0,0,0,1.521-.407,3.357,3.357,0,0,0,1.023-1.18v-5.1a3.266,3.266,0,0,0-1.023-1.128,2.623,2.623,0,0,0-1.508-.407,2.348,2.348,0,0,0-2.151,1.207,5.928,5.928,0,0,0-.721,3.108v.21a4.629,4.629,0,0,0,.748,2.688Z" transform="translate(85.303 50.672)" fill="#f05423"/>
      <path id="Path_4002" data-name="Path 4002" d="M284.328,172.645a5.8,5.8,0,0,1-1.377-3.934v-.459a5.666,5.666,0,0,1,1.416-3.934,4.315,4.315,0,0,1,3.331-1.574,4.17,4.17,0,0,1,3.384,1.311,5.338,5.338,0,0,1,1.154,3.607v1.311h-7.187a4.459,4.459,0,0,0,.813,2.623,2.623,2.623,0,0,0,2.19,1.036,5.378,5.378,0,0,0,1.8-.288,4.3,4.3,0,0,0,1.311-.813l.787,1.311a4.813,4.813,0,0,1-1.574.97,6.334,6.334,0,0,1-2.348.393A4.682,4.682,0,0,1,284.328,172.645Zm1.639-7.528a4.078,4.078,0,0,0-.879,2.151H290.2v-.249a3.108,3.108,0,0,0-.629-1.98,2.387,2.387,0,0,0-3.62,0Z" transform="translate(88.13 50.685)" fill="#f05423"/>
      <path id="Path_4003" data-name="Path 4003" d="M295.127,163.46h2.1v1.521h-2.1v6.728a1.521,1.521,0,0,0,.315,1.089,1.141,1.141,0,0,0,.852.328,5.354,5.354,0,0,0,.6,0l.564-.092.275,1.311a2.466,2.466,0,0,1-.839.3,5.365,5.365,0,0,1-1.115.118,2.623,2.623,0,0,1-1.954-.734,3.24,3.24,0,0,1-.721-2.334v-6.715H291.35v-1.508h1.757V160.85h2.02Z" transform="translate(90.747 50.1)" fill="#f05423"/>
      <path id="Path_4004" data-name="Path 4004" d="M361.2,138.6h8.17c.092,1.311,1.023,2.518,4.354,2.518h16.262c2.439,0,3.5-.931,3.5-2.033s-1.062-1.744-2.846-1.744H370.511v-6.3H389.79c1.784,0,2.846-.616,2.846-1.8s-.892-1.993-3.134-2.033H373.069c-2.518,0-3.449,1.22-3.449,2.518h-8.17c0-5.036,2.807-10.282,11.8-10.282h16.262c9.351,0,12.236,4.433,12.236,8.787a6.033,6.033,0,0,1-2.807,5.246,6.269,6.269,0,0,1,3.62,5.928c0,5.01-3.449,9.443-12.6,9.443H373.7C362.629,148.892,361.2,141.365,361.2,138.6Z" transform="translate(112.503 37.205)" fill="#AD3889"/>
      <path id="Path_4005" data-name="Path 4005" d="M395.24,134.165c0-8.288,5.81-14.715,15.043-14.715h16.262c9.18,0,15.043,6.426,15.043,14.715s-5.81,14.728-15.043,14.728H410.283C401.05,148.892,395.24,142.466,395.24,134.165Zm31.3,6.1a6.1,6.1,0,0,0,0-12.2H410.283a6.1,6.1,0,0,0,0,12.2Z" transform="translate(123.105 37.205)" fill="#AD3889"/>
      <path id="Path_4006" data-name="Path 4006" d="M439.041,136.565H432.13v-6.557h6.911V122.44h7.344v7.567H453.3v6.557h-6.911v7.593h-7.344Z" transform="translate(134.595 38.136)" fill="#AD3889"/>
      <path id="Path_4007" data-name="Path 4007" d="M396.5,163.225h-1.718l-.157-1.718h-3.3v11.8l1.666.275V174.9h-5.364v-1.311l1.679-.275v-11.8h-3.318l-.144,1.718H384.11v-3.3H396.5Z" transform="translate(119.639 49.81)" fill="#f05423"/>
      <path id="Path_4008" data-name="Path 4008" d="M400.719,173.161a6.378,6.378,0,0,1-.079-.721,4.8,4.8,0,0,1-1.456,1.311,4.184,4.184,0,0,1-4.5-.341,3.108,3.108,0,0,1-.9-2.387,2.741,2.741,0,0,1,1.311-2.426,6.177,6.177,0,0,1,3.5-.866h2.033V166.42a2.007,2.007,0,0,0-.6-1.548,2.439,2.439,0,0,0-1.718-.564,4.224,4.224,0,0,0-1.312.2,2.388,2.388,0,0,0-.931.538l-.223,1.167h-1.548v-2.151a5.744,5.744,0,0,1,1.823-.971,7.108,7.108,0,0,1,2.348-.367,4.616,4.616,0,0,1,3.043.957,3.358,3.358,0,0,1,1.167,2.767v6.164l.813.1v1.311h-2.623C400.8,173.672,400.745,173.4,400.719,173.161Zm-1.311-1.141a2.964,2.964,0,0,0,1.18-1.167v-1.823h-2.151a3.069,3.069,0,0,0-1.954.577,1.718,1.718,0,0,0-.721,1.39,1.311,1.311,0,0,0,.446,1.115,2.046,2.046,0,0,0,1.311.38,3.646,3.646,0,0,0,1.928-.472Z" transform="translate(122.649 50.681)" fill="#f05423"/>
      <path id="Path_4009" data-name="Path 4009" d="M402.26,159.11h3.7v14.426l1.666.275v1.311H402.26v-1.311l1.679-.275V160.71l-1.679-.289Z" transform="translate(125.292 49.558)" fill="#f05423"/>
      <path id="Path_4010" data-name="Path 4010" d="M407.3,159.11h3.685v9.259H412.3l2.361-2.925-1.01-.131V164h4.643v1.311l-1.312.262-2.925,3.489,3.554,4.5,1.311.236v1.311h-4.59V173.8l1.023-.131-2.938-3.685H411.1v3.541l1.679.275v1.311H407.3V173.8l1.679-.275V160.7l-1.679-.289Z" transform="translate(126.862 49.558)" fill="#f05423"/>
      <path id="Path_4011" data-name="Path 4011" d="M424.117,166.361l-.328-1.311a2.716,2.716,0,0,0-.931-.564,3.423,3.423,0,0,0-1.312-.21,2.334,2.334,0,0,0-1.6.472,1.508,1.508,0,0,0-.525,1.141,1.312,1.312,0,0,0,.459,1.036,4.971,4.971,0,0,0,1.875.669,7.973,7.973,0,0,1,3.134,1.233,2.466,2.466,0,0,1,1.128,2.125,2.9,2.9,0,0,1-1.193,2.387,5.036,5.036,0,0,1-3.121.9,8.067,8.067,0,0,1-2.269-.289,6.046,6.046,0,0,1-1.784-.839v-2.531h1.508l.38,1.482a2.111,2.111,0,0,0,.957.459,5.35,5.35,0,0,0,1.22.144,2.833,2.833,0,0,0,1.679-.433,1.311,1.311,0,0,0,.616-1.141,1.377,1.377,0,0,0-.512-1.1,4.694,4.694,0,0,0-1.915-.748,8.052,8.052,0,0,1-3.043-1.193,2.44,2.44,0,0,1-1.023-2.059,2.885,2.885,0,0,1,1.141-2.3,4.538,4.538,0,0,1,3-.957,7.186,7.186,0,0,1,2.269.328,4.931,4.931,0,0,1,1.666.9l.1,2.452Z" transform="translate(130.045 50.687)" fill="#f05423"/>
      <g id="Group_952" data-name="Group 952" transform="translate(208.314 77.35)" opacity="0.36">
        <g id="Group_951" data-name="Group 951" clip-path="url(#clip-path)">
          <g id="Group_946" data-name="Group 946" transform="translate(308.274 -16.38)" clip-path="url(#clip-path-2)">
            <line id="Line_602" data-name="Line 602" x2="98.491" transform="translate(97.482 92.918)" fill="none" stroke="#15263A" stroke-width="1.49"/>
            <line id="Line_603" data-name="Line 603" x2="98.491" transform="translate(97.482 73.364)" fill="none" stroke="#15263A" stroke-width="1.49"/>
            <line id="Line_604" data-name="Line 604" x2="98.491" transform="translate(97.482 53.796)" fill="none" stroke="#15263A" stroke-width="1.49"/>
            <line id="Line_605" data-name="Line 605" x2="98.491" transform="translate(97.482 34.229)" fill="none" stroke="#15263A" stroke-width="1.49"/>
            <line id="Line_606" data-name="Line 606" x2="98.491" transform="translate(97.482 14.675)" fill="none" stroke="#15263A" stroke-width="1.49"/>
            <line id="Line_607" data-name="Line 607" x2="98.491" transform="translate(97.482 83.147)" fill="none" stroke="#15263A" stroke-width="1.49"/>
            <line id="Line_608" data-name="Line 608" x2="98.491" transform="translate(97.482 63.58)" fill="none" stroke="#15263A" stroke-width="1.49"/>
            <line id="Line_609" data-name="Line 609" x2="98.491" transform="translate(97.482 44.013)" fill="none" stroke="#15263A" stroke-width="1.49"/>
            <line id="Line_610" data-name="Line 610" x2="98.491" transform="translate(97.482 24.446)" fill="none" stroke="#15263A" stroke-width="1.49"/>
            <line id="Line_611" data-name="Line 611" x2="98.491" transform="translate(97.482 4.892)" fill="none" stroke="#15263A" stroke-width="1.49"/>
            <line id="Line_612" data-name="Line 612" x2="98.504" transform="translate(-0.341 92.918)" fill="none" stroke="#15263A" stroke-width="1.49"/>
            <line id="Line_613" data-name="Line 613" x2="98.504" transform="translate(-0.341 73.364)" fill="none" stroke="#15263A" stroke-width="1.49"/>
            <line id="Line_614" data-name="Line 614" x2="98.504" transform="translate(-0.341 53.796)" fill="none" stroke="#15263A" stroke-width="1.49"/>
            <line id="Line_615" data-name="Line 615" x2="98.504" transform="translate(-0.341 34.229)" fill="none" stroke="#15263A" stroke-width="1.49"/>
            <line id="Line_616" data-name="Line 616" x2="98.504" transform="translate(-0.341 14.675)" fill="none" stroke="#15263A" stroke-width="1.49"/>
            <line id="Line_617" data-name="Line 617" x2="98.504" transform="translate(-0.341 83.147)" fill="none" stroke="#15263A" stroke-width="1.49"/>
            <line id="Line_618" data-name="Line 618" x2="98.504" transform="translate(-0.341 63.58)" fill="none" stroke="#15263A" stroke-width="1.49"/>
            <line id="Line_619" data-name="Line 619" x2="98.504" transform="translate(-0.341 44.013)" fill="none" stroke="#15263A" stroke-width="1.49"/>
            <line id="Line_620" data-name="Line 620" x2="98.504" transform="translate(-0.341 24.446)" fill="none" stroke="#15263A" stroke-width="1.49"/>
            <line id="Line_621" data-name="Line 621" x2="98.504" transform="translate(-0.341 4.892)" fill="none" stroke="#15263A" stroke-width="1.49"/>
            <line id="Line_622" data-name="Line 622" x2="98.491" transform="translate(-98.15 92.918)" fill="none" stroke="#15263A" stroke-width="1.49"/>
            <line id="Line_623" data-name="Line 623" x2="98.491" transform="translate(-98.15 73.364)" fill="none" stroke="#15263A" stroke-width="1.49"/>
            <line id="Line_624" data-name="Line 624" x2="98.491" transform="translate(-98.15 53.796)" fill="none" stroke="#15263A" stroke-width="1.49"/>
            <line id="Line_625" data-name="Line 625" x2="98.491" transform="translate(-98.15 34.229)" fill="none" stroke="#15263A" stroke-width="1.49"/>
            <line id="Line_626" data-name="Line 626" x2="98.491" transform="translate(-98.15 14.675)" fill="none" stroke="#15263A" stroke-width="1.49"/>
            <line id="Line_627" data-name="Line 627" x2="98.491" transform="translate(-98.15 83.147)" fill="none" stroke="#15263A" stroke-width="1.49"/>
            <line id="Line_628" data-name="Line 628" x2="98.491" transform="translate(-98.15 63.58)" fill="none" stroke="#15263A" stroke-width="1.49"/>
            <line id="Line_629" data-name="Line 629" x2="98.491" transform="translate(-98.15 44.013)" fill="none" stroke="#15263A" stroke-width="1.49"/>
            <line id="Line_630" data-name="Line 630" x2="98.491" transform="translate(-98.15 24.446)" fill="none" stroke="#15263A" stroke-width="1.49"/>
            <line id="Line_631" data-name="Line 631" x2="98.491" transform="translate(-98.15 4.892)" fill="none" stroke="#15263A" stroke-width="1.49"/>
          </g>
          <g id="Group_947" data-name="Group 947" transform="translate(210.465 -16.38)" clip-path="url(#clip-path-2)">
            <line id="Line_632" data-name="Line 632" x2="98.504" transform="translate(97.468 92.918)" fill="none" stroke="#15263A" stroke-width="1.49"/>
            <line id="Line_633" data-name="Line 633" x2="98.504" transform="translate(97.468 73.364)" fill="none" stroke="#15263A" stroke-width="1.49"/>
            <line id="Line_634" data-name="Line 634" x2="98.504" transform="translate(97.468 53.796)" fill="none" stroke="#15263A" stroke-width="1.49"/>
            <line id="Line_635" data-name="Line 635" x2="98.504" transform="translate(97.468 34.229)" fill="none" stroke="#15263A" stroke-width="1.49"/>
            <line id="Line_636" data-name="Line 636" x2="98.504" transform="translate(97.468 14.675)" fill="none" stroke="#15263A" stroke-width="1.49"/>
            <line id="Line_637" data-name="Line 637" x2="98.504" transform="translate(97.468 83.147)" fill="none" stroke="#15263A" stroke-width="1.49"/>
            <line id="Line_638" data-name="Line 638" x2="98.504" transform="translate(97.468 63.58)" fill="none" stroke="#15263A" stroke-width="1.49"/>
            <line id="Line_639" data-name="Line 639" x2="98.504" transform="translate(97.468 44.013)" fill="none" stroke="#15263A" stroke-width="1.49"/>
            <line id="Line_640" data-name="Line 640" x2="98.504" transform="translate(97.468 24.446)" fill="none" stroke="#15263A" stroke-width="1.49"/>
            <line id="Line_641" data-name="Line 641" x2="98.504" transform="translate(97.468 4.892)" fill="none" stroke="#15263A" stroke-width="1.49"/>
            <line id="Line_642" data-name="Line 642" x2="98.491" transform="translate(-0.341 92.918)" fill="none" stroke="#15263A" stroke-width="1.49"/>
            <line id="Line_643" data-name="Line 643" x2="98.491" transform="translate(-0.341 73.364)" fill="none" stroke="#15263A" stroke-width="1.49"/>
            <line id="Line_644" data-name="Line 644" x2="98.491" transform="translate(-0.341 53.796)" fill="none" stroke="#15263A" stroke-width="1.49"/>
            <line id="Line_645" data-name="Line 645" x2="98.491" transform="translate(-0.341 34.229)" fill="none" stroke="#15263A" stroke-width="1.49"/>
            <line id="Line_646" data-name="Line 646" x2="98.491" transform="translate(-0.341 14.675)" fill="none" stroke="#15263A" stroke-width="1.49"/>
            <line id="Line_647" data-name="Line 647" x2="98.491" transform="translate(-0.341 83.147)" fill="none" stroke="#15263A" stroke-width="1.49"/>
            <line id="Line_648" data-name="Line 648" x2="98.491" transform="translate(-0.341 63.58)" fill="none" stroke="#15263A" stroke-width="1.49"/>
            <line id="Line_649" data-name="Line 649" x2="98.491" transform="translate(-0.341 44.013)" fill="none" stroke="#15263A" stroke-width="1.49"/>
            <line id="Line_650" data-name="Line 650" x2="98.491" transform="translate(-0.341 24.446)" fill="none" stroke="#15263A" stroke-width="1.49"/>
            <line id="Line_651" data-name="Line 651" x2="98.491" transform="translate(-0.341 4.892)" fill="none" stroke="#15263A" stroke-width="1.49"/>
            <line id="Line_652" data-name="Line 652" x2="98.504" transform="translate(-98.164 92.918)" fill="none" stroke="#15263A" stroke-width="1.49"/>
            <line id="Line_653" data-name="Line 653" x2="98.504" transform="translate(-98.164 73.364)" fill="none" stroke="#15263A" stroke-width="1.49"/>
            <line id="Line_654" data-name="Line 654" x2="98.504" transform="translate(-98.164 53.796)" fill="none" stroke="#15263A" stroke-width="1.49"/>
            <line id="Line_655" data-name="Line 655" x2="98.504" transform="translate(-98.164 34.229)" fill="none" stroke="#15263A" stroke-width="1.49"/>
            <line id="Line_656" data-name="Line 656" x2="98.504" transform="translate(-98.164 14.675)" fill="none" stroke="#15263A" stroke-width="1.49"/>
            <line id="Line_657" data-name="Line 657" x2="98.504" transform="translate(-98.164 83.147)" fill="none" stroke="#15263A" stroke-width="1.49"/>
            <line id="Line_658" data-name="Line 658" x2="98.504" transform="translate(-98.164 63.58)" fill="none" stroke="#15263A" stroke-width="1.49"/>
            <line id="Line_659" data-name="Line 659" x2="98.504" transform="translate(-98.164 44.013)" fill="none" stroke="#15263A" stroke-width="1.49"/>
            <line id="Line_660" data-name="Line 660" x2="98.504" transform="translate(-98.164 24.446)" fill="none" stroke="#15263A" stroke-width="1.49"/>
            <line id="Line_661" data-name="Line 661" x2="98.504" transform="translate(-98.164 4.892)" fill="none" stroke="#15263A" stroke-width="1.49"/>
          </g>
          <g id="Group_948" data-name="Group 948" transform="translate(112.642 -16.38)" clip-path="url(#clip-path-2)">
            <line id="Line_662" data-name="Line 662" x2="98.491" transform="translate(97.482 92.918)" fill="none" stroke="#15263A" stroke-width="1.49"/>
            <line id="Line_663" data-name="Line 663" x2="98.491" transform="translate(97.482 73.364)" fill="none" stroke="#15263A" stroke-width="1.49"/>
            <line id="Line_664" data-name="Line 664" x2="98.491" transform="translate(97.482 53.796)" fill="none" stroke="#15263A" stroke-width="1.49"/>
            <line id="Line_665" data-name="Line 665" x2="98.491" transform="translate(97.482 34.229)" fill="none" stroke="#15263A" stroke-width="1.49"/>
            <line id="Line_666" data-name="Line 666" x2="98.491" transform="translate(97.482 14.675)" fill="none" stroke="#15263A" stroke-width="1.49"/>
            <line id="Line_667" data-name="Line 667" x2="98.491" transform="translate(97.482 83.147)" fill="none" stroke="#15263A" stroke-width="1.49"/>
            <line id="Line_668" data-name="Line 668" x2="98.491" transform="translate(97.482 63.58)" fill="none" stroke="#15263A" stroke-width="1.49"/>
            <line id="Line_669" data-name="Line 669" x2="98.491" transform="translate(97.482 44.013)" fill="none" stroke="#15263A" stroke-width="1.49"/>
            <line id="Line_670" data-name="Line 670" x2="98.491" transform="translate(97.482 24.446)" fill="none" stroke="#15263A" stroke-width="1.49"/>
            <line id="Line_671" data-name="Line 671" x2="98.491" transform="translate(97.482 4.892)" fill="none" stroke="#15263A" stroke-width="1.49"/>
            <line id="Line_672" data-name="Line 672" x2="98.504" transform="translate(-0.341 92.918)" fill="none" stroke="#15263A" stroke-width="1.49"/>
            <line id="Line_673" data-name="Line 673" x2="98.504" transform="translate(-0.341 73.364)" fill="none" stroke="#15263A" stroke-width="1.49"/>
            <line id="Line_674" data-name="Line 674" x2="98.504" transform="translate(-0.341 53.796)" fill="none" stroke="#15263A" stroke-width="1.49"/>
            <line id="Line_675" data-name="Line 675" x2="98.504" transform="translate(-0.341 34.229)" fill="none" stroke="#15263A" stroke-width="1.49"/>
            <line id="Line_676" data-name="Line 676" x2="98.504" transform="translate(-0.341 14.675)" fill="none" stroke="#15263A" stroke-width="1.49"/>
            <line id="Line_677" data-name="Line 677" x2="98.504" transform="translate(-0.341 83.147)" fill="none" stroke="#15263A" stroke-width="1.49"/>
            <line id="Line_678" data-name="Line 678" x2="98.504" transform="translate(-0.341 63.58)" fill="none" stroke="#15263A" stroke-width="1.49"/>
            <line id="Line_679" data-name="Line 679" x2="98.504" transform="translate(-0.341 44.013)" fill="none" stroke="#15263A" stroke-width="1.49"/>
            <line id="Line_680" data-name="Line 680" x2="98.504" transform="translate(-0.341 24.446)" fill="none" stroke="#15263A" stroke-width="1.49"/>
            <line id="Line_681" data-name="Line 681" x2="98.504" transform="translate(-0.341 4.892)" fill="none" stroke="#15263A" stroke-width="1.49"/>
            <line id="Line_682" data-name="Line 682" x2="98.491" transform="translate(-98.15 92.918)" fill="none" stroke="#15263A" stroke-width="1.49"/>
            <line id="Line_683" data-name="Line 683" x2="98.491" transform="translate(-98.15 73.364)" fill="none" stroke="#15263A" stroke-width="1.49"/>
            <line id="Line_684" data-name="Line 684" x2="98.491" transform="translate(-98.15 53.796)" fill="none" stroke="#15263A" stroke-width="1.49"/>
            <line id="Line_685" data-name="Line 685" x2="98.491" transform="translate(-98.15 34.229)" fill="none" stroke="#15263A" stroke-width="1.49"/>
            <line id="Line_686" data-name="Line 686" x2="98.491" transform="translate(-98.15 14.675)" fill="none" stroke="#15263A" stroke-width="1.49"/>
            <line id="Line_687" data-name="Line 687" x2="98.491" transform="translate(-98.15 83.147)" fill="none" stroke="#15263A" stroke-width="1.49"/>
            <line id="Line_688" data-name="Line 688" x2="98.491" transform="translate(-98.15 63.58)" fill="none" stroke="#15263A" stroke-width="1.49"/>
            <line id="Line_689" data-name="Line 689" x2="98.491" transform="translate(-98.15 44.013)" fill="none" stroke="#15263A" stroke-width="1.49"/>
            <line id="Line_690" data-name="Line 690" x2="98.491" transform="translate(-98.15 24.446)" fill="none" stroke="#15263A" stroke-width="1.49"/>
            <line id="Line_691" data-name="Line 691" x2="98.491" transform="translate(-98.15 4.892)" fill="none" stroke="#15263A" stroke-width="1.49"/>
          </g>
          <g id="Group_949" data-name="Group 949" transform="translate(14.833 -16.38)" clip-path="url(#clip-path-2)">
            <line id="Line_692" data-name="Line 692" x2="98.504" transform="translate(97.468 92.918)" fill="none" stroke="#15263A" stroke-width="1.49"/>
            <line id="Line_693" data-name="Line 693" x2="98.504" transform="translate(97.468 73.364)" fill="none" stroke="#15263A" stroke-width="1.49"/>
            <line id="Line_694" data-name="Line 694" x2="98.504" transform="translate(97.468 53.796)" fill="none" stroke="#15263A" stroke-width="1.49"/>
            <line id="Line_695" data-name="Line 695" x2="98.504" transform="translate(97.468 34.229)" fill="none" stroke="#15263A" stroke-width="1.49"/>
            <line id="Line_696" data-name="Line 696" x2="98.504" transform="translate(97.468 14.675)" fill="none" stroke="#15263A" stroke-width="1.49"/>
            <line id="Line_697" data-name="Line 697" x2="98.504" transform="translate(97.468 83.147)" fill="none" stroke="#15263A" stroke-width="1.49"/>
            <line id="Line_698" data-name="Line 698" x2="98.504" transform="translate(97.468 63.58)" fill="none" stroke="#15263A" stroke-width="1.49"/>
            <line id="Line_699" data-name="Line 699" x2="98.504" transform="translate(97.468 44.013)" fill="none" stroke="#15263A" stroke-width="1.49"/>
            <line id="Line_700" data-name="Line 700" x2="98.504" transform="translate(97.468 24.446)" fill="none" stroke="#15263A" stroke-width="1.49"/>
            <line id="Line_701" data-name="Line 701" x2="98.504" transform="translate(97.468 4.892)" fill="none" stroke="#15263A" stroke-width="1.49"/>
            <line id="Line_702" data-name="Line 702" x2="98.491" transform="translate(-0.341 92.918)" fill="none" stroke="#15263A" stroke-width="1.49"/>
            <line id="Line_703" data-name="Line 703" x2="98.491" transform="translate(-0.341 73.364)" fill="none" stroke="#15263A" stroke-width="1.49"/>
            <line id="Line_704" data-name="Line 704" x2="98.491" transform="translate(-0.341 53.796)" fill="none" stroke="#15263A" stroke-width="1.49"/>
            <line id="Line_705" data-name="Line 705" x2="98.491" transform="translate(-0.341 34.229)" fill="none" stroke="#15263A" stroke-width="1.49"/>
            <line id="Line_706" data-name="Line 706" x2="98.491" transform="translate(-0.341 14.675)" fill="none" stroke="#15263A" stroke-width="1.49"/>
            <line id="Line_707" data-name="Line 707" x2="98.491" transform="translate(-0.341 83.147)" fill="none" stroke="#15263A" stroke-width="1.49"/>
            <line id="Line_708" data-name="Line 708" x2="98.491" transform="translate(-0.341 63.58)" fill="none" stroke="#15263A" stroke-width="1.49"/>
            <line id="Line_709" data-name="Line 709" x2="98.491" transform="translate(-0.341 44.013)" fill="none" stroke="#15263A" stroke-width="1.49"/>
            <line id="Line_710" data-name="Line 710" x2="98.491" transform="translate(-0.341 24.446)" fill="none" stroke="#15263A" stroke-width="1.49"/>
            <line id="Line_711" data-name="Line 711" x2="98.491" transform="translate(-0.341 4.892)" fill="none" stroke="#15263A" stroke-width="1.49"/>
            <line id="Line_712" data-name="Line 712" x2="98.504" transform="translate(-98.163 92.918)" fill="none" stroke="#15263A" stroke-width="1.49"/>
            <line id="Line_713" data-name="Line 713" x2="98.504" transform="translate(-98.163 73.364)" fill="none" stroke="#15263A" stroke-width="1.49"/>
            <line id="Line_714" data-name="Line 714" x2="98.504" transform="translate(-98.163 53.796)" fill="none" stroke="#15263A" stroke-width="1.49"/>
            <line id="Line_715" data-name="Line 715" x2="98.504" transform="translate(-98.163 34.229)" fill="none" stroke="#15263A" stroke-width="1.49"/>
            <line id="Line_716" data-name="Line 716" x2="98.504" transform="translate(-98.163 14.675)" fill="none" stroke="#15263A" stroke-width="1.49"/>
            <line id="Line_717" data-name="Line 717" x2="98.504" transform="translate(-98.163 83.147)" fill="none" stroke="#15263A" stroke-width="1.49"/>
            <line id="Line_718" data-name="Line 718" x2="98.504" transform="translate(-98.163 63.58)" fill="none" stroke="#15263A" stroke-width="1.49"/>
            <line id="Line_719" data-name="Line 719" x2="98.504" transform="translate(-98.163 44.013)" fill="none" stroke="#15263A" stroke-width="1.49"/>
            <line id="Line_720" data-name="Line 720" x2="98.504" transform="translate(-98.163 24.446)" fill="none" stroke="#15263A" stroke-width="1.49"/>
            <line id="Line_721" data-name="Line 721" x2="98.504" transform="translate(-98.163 4.892)" fill="none" stroke="#15263A" stroke-width="1.49"/>
          </g>
          <g id="Group_950" data-name="Group 950" transform="translate(-82.99 -16.38)" clip-path="url(#clip-path-2)">
            <line id="Line_722" data-name="Line 722" x2="98.491" transform="translate(97.482 92.918)" fill="none" stroke="#15263A" stroke-width="1.49"/>
            <line id="Line_723" data-name="Line 723" x2="98.491" transform="translate(97.482 73.364)" fill="none" stroke="#15263A" stroke-width="1.49"/>
            <line id="Line_724" data-name="Line 724" x2="98.491" transform="translate(97.482 53.796)" fill="none" stroke="#15263A" stroke-width="1.49"/>
            <line id="Line_725" data-name="Line 725" x2="98.491" transform="translate(97.482 34.229)" fill="none" stroke="#15263A" stroke-width="1.49"/>
            <line id="Line_726" data-name="Line 726" x2="98.491" transform="translate(97.482 14.675)" fill="none" stroke="#15263A" stroke-width="1.49"/>
            <line id="Line_727" data-name="Line 727" x2="98.491" transform="translate(97.482 83.147)" fill="none" stroke="#15263A" stroke-width="1.49"/>
            <line id="Line_728" data-name="Line 728" x2="98.491" transform="translate(97.482 63.58)" fill="none" stroke="#15263A" stroke-width="1.49"/>
            <line id="Line_729" data-name="Line 729" x2="98.491" transform="translate(97.482 44.013)" fill="none" stroke="#15263A" stroke-width="1.49"/>
            <line id="Line_730" data-name="Line 730" x2="98.491" transform="translate(97.482 24.446)" fill="none" stroke="#15263A" stroke-width="1.49"/>
            <line id="Line_731" data-name="Line 731" x2="98.491" transform="translate(97.482 4.892)" fill="none" stroke="#15263A" stroke-width="1.49"/>
            <line id="Line_732" data-name="Line 732" x2="98.504" transform="translate(-0.341 92.918)" fill="none" stroke="#15263A" stroke-width="1.49"/>
            <line id="Line_733" data-name="Line 733" x2="98.504" transform="translate(-0.341 73.364)" fill="none" stroke="#15263A" stroke-width="1.49"/>
            <line id="Line_734" data-name="Line 734" x2="98.504" transform="translate(-0.341 53.796)" fill="none" stroke="#15263A" stroke-width="1.49"/>
            <line id="Line_735" data-name="Line 735" x2="98.504" transform="translate(-0.341 34.229)" fill="none" stroke="#15263A" stroke-width="1.49"/>
            <line id="Line_736" data-name="Line 736" x2="98.504" transform="translate(-0.341 14.675)" fill="none" stroke="#15263A" stroke-width="1.49"/>
            <line id="Line_737" data-name="Line 737" x2="98.504" transform="translate(-0.341 83.147)" fill="none" stroke="#15263A" stroke-width="1.49"/>
            <line id="Line_738" data-name="Line 738" x2="98.504" transform="translate(-0.341 63.58)" fill="none" stroke="#15263A" stroke-width="1.49"/>
            <line id="Line_739" data-name="Line 739" x2="98.504" transform="translate(-0.341 44.013)" fill="none" stroke="#15263A" stroke-width="1.49"/>
            <line id="Line_740" data-name="Line 740" x2="98.504" transform="translate(-0.341 24.446)" fill="none" stroke="#15263A" stroke-width="1.49"/>
            <line id="Line_741" data-name="Line 741" x2="98.504" transform="translate(-0.341 4.892)" fill="none" stroke="#15263A" stroke-width="1.49"/>
            <line id="Line_742" data-name="Line 742" x2="98.491" transform="translate(-98.15 92.918)" fill="none" stroke="#15263A" stroke-width="1.49"/>
            <line id="Line_743" data-name="Line 743" x2="98.491" transform="translate(-98.15 73.364)" fill="none" stroke="#15263A" stroke-width="1.49"/>
            <line id="Line_744" data-name="Line 744" x2="98.491" transform="translate(-98.15 53.796)" fill="none" stroke="#15263A" stroke-width="1.49"/>
            <line id="Line_745" data-name="Line 745" x2="98.491" transform="translate(-98.15 34.229)" fill="none" stroke="#15263A" stroke-width="1.49"/>
            <line id="Line_746" data-name="Line 746" x2="98.491" transform="translate(-98.15 14.675)" fill="none" stroke="#15263A" stroke-width="1.49"/>
            <line id="Line_747" data-name="Line 747" x2="98.491" transform="translate(-98.15 83.147)" fill="none" stroke="#15263A" stroke-width="1.49"/>
            <line id="Line_748" data-name="Line 748" x2="98.491" transform="translate(-98.15 63.58)" fill="none" stroke="#15263A" stroke-width="1.49"/>
            <line id="Line_749" data-name="Line 749" x2="98.491" transform="translate(-98.15 44.013)" fill="none" stroke="#15263A" stroke-width="1.49"/>
            <line id="Line_750" data-name="Line 750" x2="98.491" transform="translate(-98.15 24.446)" fill="none" stroke="#15263A" stroke-width="1.49"/>
            <line id="Line_751" data-name="Line 751" x2="98.491" transform="translate(-98.15 4.892)" fill="none" stroke="#15263A" stroke-width="1.49"/>
          </g>
        </g>
      </g>
      <text style="white-space: pre; fill: rgb(51, 51, 51); font-family: Arial, sans-serif; font-size: 14.2px;" x="83.823" y="53.597"><tspan x="83.822998046875" dy="1em"></tspan></text>
      <text style="white-space: pre; fill: rgb(51, 51, 51); font-family: Arial, sans-serif; font-size: 14.2px;" x="119.455" y="137.633"><tspan x="119.45500183105469" dy="1em"></tspan></text>
      <text style="white-space: pre; fill: rgb(51, 51, 51); font-family: Arial, sans-serif; font-size: 14.2px;" x="138.299" y="133.089"> </text>
      <text style="fill: rgb(240, 84, 35); font-family: Arial, sans-serif; font-size: 13.9088px; letter-spacing: -13px; line-height: 22.254px; stroke-width: 0px; word-spacing: -32.9px; white-space: pre;" transform="matrix(1.805086, 0, 0, 1.509839, -169.695435, -110.750679)" x="207.058" y="222.685" dx="0.04" dy="-0.433">3
</text>
    </g>
  </g>
</svg>