<svg width="571" height="370" viewBox="0 0 571 370" fill="none" xmlns="http://www.w3.org/2000/svg">
<path fill-rule="evenodd" clip-rule="evenodd" d="M286 200C341.228 200 386 155.228 386 100C386 44.7715 341.228 0 286 0C230.772 0 186 44.7715 186 100C186 155.228 230.772 200 286 200ZM286 150C313.614 150 336 127.614 336 100C336 72.3858 313.614 50 286 50C258.386 50 236 72.3858 236 100C236 127.614 258.386 150 286 150Z" fill="url(#paint0_linear_2_10)"/>
<path fill-rule="evenodd" clip-rule="evenodd" d="M286 0C244.579 0 211 33.5786 211 75C211 116.421 244.579 150 286 150C258.386 150 236 127.614 236 100C236 72.3858 258.386 50 286 50V0Z" fill="url(#paint1_linear_2_10)"/>
<path fill-rule="evenodd" clip-rule="evenodd" d="M286 0C230.772 0 186 44.7715 186 100C186 155.228 230.772 200 286 200V150C244.579 150 211 116.421 211 75C211 33.5786 244.579 0 286 0Z" fill="url(#paint2_linear_2_10)"/>
<path d="M39.3 330.7C32.7667 330.7 26.7667 329.167 21.3 326.1C15.8333 323.033 11.5 318.8 8.3 313.4C5.1 307.933 3.5 301.767 3.5 294.9C3.5 288.1 5.1 282 8.3 276.6C11.5 271.133 15.8333 266.867 21.3 263.8C26.7667 260.733 32.7667 259.2 39.3 259.2C45.9 259.2 51.9 260.733 57.3 263.8C62.7667 266.867 67.0667 271.133 70.2 276.6C73.4 282 75 288.1 75 294.9C75 301.767 73.4 307.933 70.2 313.4C67.0667 318.8 62.7667 323.033 57.3 326.1C51.8333 329.167 45.8333 330.7 39.3 330.7ZM39.3 318.2C43.5 318.2 47.2 317.267 50.4 315.4C53.6 313.467 56.1 310.733 57.9 307.2C59.7 303.667 60.6 299.567 60.6 294.9C60.6 290.233 59.7 286.167 57.9 282.7C56.1 279.167 53.6 276.467 50.4 274.6C47.2 272.733 43.5 271.8 39.3 271.8C35.1 271.8 31.3667 272.733 28.1 274.6C24.9 276.467 22.4 279.167 20.6 282.7C18.8 286.167 17.9 290.233 17.9 294.9C17.9 299.567 18.8 303.667 20.6 307.2C22.4 310.733 24.9 313.467 28.1 315.4C31.3667 317.267 35.1 318.2 39.3 318.2ZM152.316 281.8C152.316 285.533 151.416 289.033 149.616 292.3C147.882 295.567 145.116 298.2 141.316 300.2C137.582 302.2 132.849 303.2 127.116 303.2H115.416V330H101.416V260.2H127.116C132.516 260.2 137.116 261.133 140.916 263C144.716 264.867 147.549 267.433 149.416 270.7C151.349 273.967 152.316 277.667 152.316 281.8ZM126.516 291.9C130.382 291.9 133.249 291.033 135.116 289.3C136.982 287.5 137.916 285 137.916 281.8C137.916 275 134.116 271.6 126.516 271.6H115.416V291.9H126.516ZM225.755 260.2V271.5H207.155V330H193.155V271.5H174.555V260.2H225.755ZM265.97 260.2V330H251.97V260.2H265.97ZM371.902 260.2V330H357.902V284.6L339.202 330H328.602L309.802 284.6V330H295.802V260.2H311.702L333.902 312.1L356.102 260.2H371.902ZM415.544 260.2V303.4C415.544 308.133 416.777 311.767 419.244 314.3C421.71 316.767 425.177 318 429.644 318C434.177 318 437.677 316.767 440.144 314.3C442.61 311.767 443.844 308.133 443.844 303.4V260.2H457.944V303.3C457.944 309.233 456.644 314.267 454.044 318.4C451.51 322.467 448.077 325.533 443.744 327.6C439.477 329.667 434.71 330.7 429.444 330.7C424.244 330.7 419.51 329.667 415.244 327.6C411.044 325.533 407.71 322.467 405.244 318.4C402.777 314.267 401.544 309.233 401.544 303.3V260.2H415.544ZM563.57 260.2V330H549.57V284.6L530.87 330H520.27L501.47 284.6V330H487.47V260.2H503.37L525.57 312.1L547.77 260.2H563.57Z" fill="#0C0726"/>
<defs>
<linearGradient id="paint0_linear_2_10" x1="186" y1="100" x2="439.714" y2="100" gradientUnits="userSpaceOnUse">
<stop stop-color="#5433FF"/>
<stop offset="0.5" stop-color="#20BDFF"/>
<stop offset="1" stop-color="#A5FECB"/>
</linearGradient>
<linearGradient id="paint1_linear_2_10" x1="286" y1="53" x2="251" y2="131.5" gradientUnits="userSpaceOnUse">
<stop stop-color="#4951FF" stop-opacity="0"/>
<stop offset="1" stop-color="#4951FF"/>
</linearGradient>
<linearGradient id="paint2_linear_2_10" x1="184.5" y1="77.1614" x2="286.038" y2="146.594" gradientUnits="userSpaceOnUse">
<stop stop-color="#28177E"/>
<stop offset="1" stop-color="#2A66CB" stop-opacity="0"/>
</linearGradient>
</defs>
</svg>
