<svg width="128" height="29" viewBox="0 0 128 29" fill="none" xmlns="http://www.w3.org/2000/svg" class="Logo__RemoteBrandLogo28-sc-1jwgl6u-1 RemoteLogo-sc-9aye2a-0 edoffA fZbQGr"><path d="M20.97 21.75h.28v6.45h-1.07c-6.92 0-10.92-3.91-10.92-10.3v-3.3l2.25-.55a3.63 3.63 0 002.66-2.76 3.58 3.58 0 00-1.32-3.58 3.64 3.64 0 00-5.86 2.84v14.09H0V10.3c0-.43.03-.86.08-1.29A10.52 10.52 0 0110.62 0 10.6 10.6 0 0120.9 7.63c.64 2.3.43 4.76-.58 6.92A10.43 10.43 0 0116.36 19c.58 2.33 1.8 2.76 4.53 2.76M39.11 8.09v3.94h-.64c-1.36 0-2.42.38-3.18 1.12a4.07 4.07 0 00-1.14 3.05v7.11h-3.82V8.33h3.82v1.94a5.3 5.3 0 014.32-2.18h.64zm16.43 9.11h-11.6c.23.9.78 1.7 1.53 2.26.76.55 1.68.83 2.76.83.83 0 1.65-.17 2.4-.53.66-.3 1.25-.75 1.72-1.32l2.55 2.23a8.13 8.13 0 01-2.95 2.22c-1.2.53-2.52.8-3.84.78a8.79 8.79 0 01-4.26-1.03 7.6 7.6 0 01-4.06-6.84c0-1.4.35-2.79 1.04-4a7.44 7.44 0 012.87-2.81 8.2 8.2 0 014.05-1.02 7.65 7.65 0 017.88 7.88c0 .45-.03.9-.1 1.35zm-5.4-5.04a3.94 3.94 0 00-4.85 0 4.1 4.1 0 00-1.4 2.24h7.66a4.1 4.1 0 00-1.4-2.24zm30-2.66a5.48 5.48 0 011.53 4.06v9.76h-3.83V14.7c0-.92-.26-1.66-.8-2.2a2.83 2.83 0 00-2.13-.83c-.93 0-1.7.28-2.28.85a2.97 2.97 0 00-.87 2.24v8.56h-3.82V14.7c0-.91-.27-1.64-.81-2.2a2.89 2.89 0 00-2.17-.83 3.1 3.1 0 00-2.27.85 2.98 2.98 0 00-.87 2.24v8.56H58V8.33h3.81v1.55a5.63 5.63 0 014.44-1.91c.96-.02 1.92.2 2.78.64.8.41 1.47 1.03 1.93 1.8a6.07 6.07 0 015.1-2.44c1.7 0 3.06.5 4.07 1.52zm19.84 6.32a7.5 7.5 0 01-2.3 5.6 7.9 7.9 0 01-5.75 2.25c-2.29 0-4.2-.75-5.75-2.25a7.5 7.5 0 01-2.32-5.6c0-2.23.77-4.1 2.32-5.6a7.91 7.91 0 015.75-2.25c2.29 0 4.2.75 5.74 2.25a7.5 7.5 0 012.31 5.6zm-5.1 2.97a4.06 4.06 0 001.16-2.97c0-1.18-.39-2.17-1.16-2.96a3.95 3.95 0 00-2.94-1.19 3.96 3.96 0 00-2.94 1.2 4.3 4.3 0 000 5.91 3.97 3.97 0 002.94 1.2c1.18 0 2.16-.4 2.93-1.2zm12.09-6.97v6.23c0 1.28.68 1.92 2.06 1.92.69-.02 1.36-.2 1.97-.5v3.56c-.87.44-1.83.67-2.8.64-1.67 0-2.94-.44-3.78-1.34a5.1 5.1 0 01-1.27-3.67v-6.84h-2.39V8.33h2.39v-2.5l3.81-1.3v3.8H111v3.49h-4.03zm20.95 5.38H116.3c.24.9.78 1.7 1.54 2.26.75.55 1.67.83 2.75.83.83 0 1.65-.17 2.4-.53.67-.3 1.26-.75 1.72-1.32l2.56 2.23c-.8.96-1.81 1.71-2.95 2.22-1.21.53-2.52.8-3.84.78a8.79 8.79 0 01-4.26-1.03 7.6 7.6 0 01-4.07-6.84c0-1.4.36-2.78 1.04-4a7.45 7.45 0 012.88-2.8 8.2 8.2 0 014.05-1.03c2.25 0 4.13.75 5.63 2.25a7.62 7.62 0 012.25 5.63c0 .45-.03.9-.08 1.35zm-5.39-5.04a3.94 3.94 0 00-4.86 0 4.1 4.1 0 00-1.39 2.24h7.64a4.1 4.1 0 00-1.39-2.24z" fill="currentColor"></path></svg>
